<?xml version="1.0" standalone="no"?>
<!DOCTYPE svg PUBLIC "-//W3C//DTD SVG 20010904//EN"
 "http://www.w3.org/TR/2001/REC-SVG-20010904/DTD/svg10.dtd">
<svg version="1.0" xmlns="http://www.w3.org/2000/svg"
 width="256.000000pt" height="256.000000pt" viewBox="0 0 256.000000 256.000000"
 preserveAspectRatio="xMidYMid meet">
<metadata>
Created by potrace 1.11, written by Peter Selinger 2001-2013
</metadata>
<g transform="translate(0.000000,256.000000) scale(0.100000,-0.100000)"
fill="#000000" stroke="none">
<path d="M1079 2003 c-310 -308 -496 -500 -505 -522 -18 -44 -18 -115 1 -155
36 -75 107 -118 260 -155 22 -5 56 -14 75 -19 19 -6 87 -24 150 -42 131 -36
219 -59 239 -64 22 -4 51 -46 51 -73 0 -25 -55 -138 -293 -602 -112 -220 -129
-257 -121 -280 21 -60 28 -55 552 464 351 347 507 508 521 538 37 76 22 156
-42 225 -32 35 -54 42 -397 128 -330 82 -360 94 -360 145 0 12 28 76 61 143
60 117 86 169 273 528 47 91 86 173 86 181 0 15 -36 47 -52 47 -5 0 -229 -219
-499 -487z"/>
</g>
</svg>
